M48
;DRILL file {PCBnew (2011-05-25)-stable} date Sa 09 Aug 2014 17:46:08 CEST
;FORMAT={-:-/ absolute / metric / decimal}
FMAT,2
METRIC,TZ
T1C0.635
T2C0.813
%
G90
G05
M71
T1
X99.060Y85.090
X157.480Y83.820
X166.370Y105.410
T2
X96.520Y72.390
X96.520Y82.550
X96.520Y87.630
X96.520Y97.790
X97.790Y111.760
X100.330Y69.850
X100.330Y80.010
X100.330Y90.170
X100.330Y100.330
X102.870Y130.810
X105.410Y116.840
X105.410Y124.460
X106.680Y77.470
X106.680Y80.010
X106.680Y82.550
X106.680Y85.090
X106.680Y87.630
X106.680Y90.170
X106.680Y92.710
X107.950Y100.330
X107.950Y111.760
X107.950Y116.840
X107.950Y124.460
X109.220Y71.120
X109.220Y106.680
X110.490Y100.330
X110.490Y116.840
X110.490Y124.460
X111.760Y71.120
X111.760Y106.680
X113.030Y116.840
X113.030Y124.460
X113.030Y130.810
X113.030Y137.160
X114.300Y77.470
X114.300Y80.010
X114.300Y82.550
X114.300Y85.090
X114.300Y87.630
X114.300Y90.170
X114.300Y92.710
X115.570Y116.840
X115.570Y124.460
X115.570Y130.810
X115.570Y137.160
X116.840Y113.030
X118.110Y90.170
X118.110Y100.330
X118.110Y116.840
X118.110Y124.460
X119.380Y69.850
X119.380Y80.010
X120.650Y116.840
X120.650Y124.460
X121.920Y96.520
X123.190Y91.440
X125.730Y130.810
X127.000Y113.030
X128.270Y100.330
X128.270Y110.490
X132.080Y96.520
X132.080Y102.870
X132.080Y105.410
X132.080Y107.950
X132.080Y113.030
X132.080Y115.570
X132.080Y118.110
X132.080Y123.190
X132.080Y125.730
X133.350Y91.440
X134.620Y110.490
X134.620Y120.650
X134.620Y128.270
X138.430Y83.820
X138.430Y86.360
X142.240Y102.870
X142.240Y105.410
X142.240Y107.950
X142.240Y113.030
X142.240Y115.570
X142.240Y118.110
X142.240Y123.190
X142.240Y125.730
X143.510Y80.010
X143.510Y90.170
X144.780Y93.980
X144.780Y110.490
X144.780Y120.650
X144.780Y128.270
X146.050Y91.440
X147.320Y100.330
X148.590Y81.280
X148.590Y88.900
X149.860Y100.330
X151.130Y81.280
X151.130Y88.900
X153.670Y81.280
X153.670Y88.900
X153.670Y115.570
X154.940Y93.980
X156.210Y81.280
X156.210Y88.900
X156.210Y91.440
X156.210Y115.570
X157.480Y76.200
X157.480Y93.980
X158.750Y81.280
X158.750Y88.900
X158.750Y115.570
X161.290Y81.280
X161.290Y88.900
X161.290Y115.570
X162.560Y91.440
X163.830Y81.280
X163.830Y88.900
X163.830Y115.570
X166.370Y99.060
X166.370Y101.600
X166.370Y115.570
X167.640Y76.200
X167.640Y93.980
X168.910Y78.740
X168.910Y88.900
X170.180Y93.980
X170.180Y104.140
X171.450Y107.950
X171.450Y110.490
X171.450Y113.030
X171.450Y115.570
X172.720Y91.440
X173.990Y85.090
X173.990Y87.630
T0
M30
